<svg xmlns="http://www.w3.org/2000/svg" version="1.0" width="272.000000pt" height="300.000000pt" viewBox="0 0 272.000000 300.000000" preserveAspectRatio="xMidYMid meet">
<metadata>
Created by potrace 1.10, written by Peter Selinger 2001-2011
</metadata>
<g transform="translate(0.000000,300.000000) scale(0.100000,-0.100000)" fill="#ffffff" stroke="none">
<path d="M1225 2834 c-337 -64 -621 -278 -775 -584 -47 -94 -65 -151 -85 -265 -22 -129 -20 -247 3 -268 10 -10 23 -17 28 -17 5 0 0 7 -10 15 -17 13 -18 23 -12 92 6 69 25 172 42 227 4 11 2 16 -4 12 -17 -10 -2 34 48 140 60 129 109 200 206 303 231 246 543 354 893 311 449 -57 832 -433 901 -887 9 -59 9 -305 0 -373 -17 -119 -101 -318 -187 -439 -185 -260 -506 -432 -810 -435 l-111 -1 59 -19 c55 -18 67 -19 156 -8 390 49 750 346 879 724 74 220 82 440 23 678 -82 332 -368 635 -707 749 -162 55 -386 74 -537 45z"/>
<path d="M1211 2735 c-189 -41 -348 -126 -490 -260 -93 -89 -138 -148 -201 -272 -57 -111 -84 -210 -100 -365 -20 -185 3 -154 35 45 45 288 200 527 442 683 321 207 755 191 1060 -37 92 -69 126 -102 187 -184 75 -100 113 -172 147 -275 41 -129 52 -215 46 -365 -10 -248 -95 -446 -276 -646 -40 -43 -69 -79 -66 -79 8 0 95 70 131 105 89 85 178 250 221 411 24 87 27 118 27 259 1 145 -2 169 -27 260 -37 133 -77 218 -157 329 -142 200 -355 337 -608 391 -91 19 -283 19 -371 0z"/>
<path d="M1740 2498 c-33 -17 -55 -65 -91 -195 -31 -115 -33 -127 -78 -386 -16 -93 -34 -174 -40 -180 -14 -14 -164 -48 -172 -39 -4 4 1 52 11 107 19 104 21 114 65 283 24 97 25 105 10 128 -37 57 -102 49 -136 -17 -22 -43 -59 -209 -90 -401 -12 -73 -25 -138 -30 -144 -5 -6 -36 -19 -68 -28 -110 -31 -166 -91 -126 -136 24 -26 42 -25 107 5 82 38 81 39 73 -72 -10 -136 16 -223 65 -223 28 0 44 28 52 89 25 196 39 267 54 278 22 16 154 37 165 26 5 -5 1 -57 -11 -125 -11 -64 -26 -166 -34 -227 -11 -83 -21 -121 -41 -155 -39 -67 -17 -119 56 -131 76 -13 111 34 124 160 18 192 64 488 77 496 7 5 34 9 60 9 39 0 50 5 72 31 20 24 24 34 16 49 -17 31 -52 50 -92 50 -37 0 -38 1 -38 38 0 33 31 217 60 357 21 101 52 201 76 243 15 24 23 50 19 61 -14 45 -73 70 -115 49z m79 -50 c6 -18 3 -28 -14 -43 -14 -14 -31 -56 -48 -120 -44 -166 -56 -223 -82 -395 -14 -91 -27 -171 -30 -177 -3 -9 9 -13 43 -12 42 1 44 2 17 9 l-30 8 36 1 c32 1 99 -15 99 -24 0 -29 -16 -35 -90 -35 l-79 0 -9 -52 c-10 -55 -62 -443 -69 -513 -7 -75 -22 -105 -51 -105 -57 0 -72 10 -72 46 0 38 14 52 28 28 7 -13 13 5 21 67 11 76 54 386 68 483 5 35 4 39 -12 32 -17 -6 -98 -20 -193 -33 -26 -3 -46 -12 -52 -23 -6 -10 -13 -65 -16 -122 -4 -56 -12 -106 -17 -110 -6 -4 -13 -36 -15 -72 -2 -36 -8 -66 -12 -66 -4 0 -13 14 -20 31 -9 22 -11 71 -8 179 l6 149 -66 -25 c-36 -13 -80 -34 -99 -45 -28 -18 -34 -18 -39 -6 -8 23 14 57 36 57 11 0 20 5 20 11 0 7 9 9 21 6 12 -3 18 -3 14 1 -3 4 22 16 57 28 l63 21 8 54 c13 88 66 351 87 435 24 92 37 109 75 100 32 -8 35 13 -28 -246 -20 -83 -54 -256 -61 -315 0 -5 21 -10 47 -10 27 0 44 1 38 3 -6 2 -11 8 -11 14 0 5 9 6 20 3 12 -4 20 -2 20 5 0 6 11 8 24 6 14 -2 26 -1 28 4 2 5 22 5 46 0 49 -9 45 -14 61 85 12 77 37 214 51 285 5 25 16 81 24 125 8 44 22 103 31 130 55 171 51 165 98 165 20 0 30 -6 36 -22z"/>
<path d="M1730 2389 c-6 -11 -10 -25 -8 -30 2 -5 8 4 15 21 13 34 9 40 -7 9z"/>
<path d="M1697 2283 c-15 -51 -16 -75 -2 -61 7 6 26 110 22 115 -2 2 -11 -22 -20 -54z"/>
<path d="M1676 2189 c-3 -13 -10 -47 -16 -76 -7 -29 -10 -58 -8 -64 2 -7 12 25 22 71 9 45 15 84 12 87 -3 3 -7 -5 -10 -18z"/>
<path d="M1326 2039 c-28 -96 -80 -378 -74 -405 3 -11 8 4 12 31 4 28 23 124 41 215 18 91 31 167 29 169 -2 2 -5 -2 -8 -10z"/>
<path d="M1635 1988 c-3 -24 -12 -74 -20 -113 -7 -38 -15 -97 -18 -130 -5 -53 -4 -49 13 30 23 113 43 246 37 252 -3 2 -8 -15 -12 -39z"/>
<path d="M1575 1595 c-4 -31 -5 -58 -2 -61 2 -3 8 20 12 51 3 31 4 59 2 62 -3 2 -9 -21 -12 -52z"/>
<path d="M1233 1495 c0 -22 2 -30 4 -17 2 12 2 30 0 40 -3 9 -5 -1 -4 -23z"/>
<path d="M1562 1490 c0 -19 2 -27 5 -17 2 9 2 25 0 35 -3 9 -5 1 -5 -18z"/>
<path d="M2262 2325 c2 -5 21 -44 42 -85 21 -41 52 -109 68 -150 16 -41 26 -62 23 -45 -12 57 -65 181 -101 235 -19 30 -34 51 -32 45z"/>
<path d="M2430 1929 c0 -5 -4 -8 -9 -5 -5 4 -7 -3 -4 -14 7 -28 18 -25 19 5 1 14 0 25 -2 25 -2 0 -4 -5 -4 -11z"/>
<path d="M2424 1732 c-1 -153 -17 -236 -72 -379 -56 -146 -175 -314 -289 -408 -67 -55 -178 -126 -227 -145 -36 -13 -32 -6 9 19 20 11 41 25 48 31 6 6 41 29 76 53 70 45 190 158 211 197 7 14 -22 -8 -66 -48 -43 -40 -89 -75 -101 -78 -13 -4 -20 -10 -17 -15 3 -5 -1 -9 -8 -10 -7 0 -40 -20 -73 -45 -177 -131 -219 -147 -488 -180 -27 -3 -47 -7 -45 -9 1 -1 39 -6 83 -9 59 -5 76 -4 65 4 -11 8 -6 10 24 5 21 -3 42 -8 46 -10 5 -3 11 -1 14 4 3 5 40 17 82 26 87 19 225 85 313 150 34 25 64 44 69 42 4 -1 7 1 7 4 0 4 31 39 69 79 179 190 278 427 293 701 6 112 1 169 -15 169 -4 0 -7 -66 -8 -148z"/>
<path d="M480 1275 c0 -3 28 -47 62 -98 84 -126 193 -235 315 -317 56 -38 99 -70 95 -73 -4 -2 -1 -2 5 -1 7 2 27 -3 45 -10 58 -24 81 -29 74 -17 -4 6 -16 11 -27 11 -10 0 -19 5 -19 10 0 6 -6 10 -14 10 -19 0 -138 67 -172 97 -16 14 -51 42 -79 63 -50 38 -86 73 -121 121 -108 148 -164 217 -164 204z"/>
<path d="M476 1225 c19 -82 186 -278 302 -355 60 -40 77 -39 21 2 -24 17 -46 34 -49 37 -3 3 -23 21 -44 40 -22 18 -62 61 -90 95 -28 33 -54 63 -58 66 -3 3 -25 37 -48 75 -28 47 -39 60 -34 40z"/>
<path d="M920 863 c30 -24 99 -60 152 -79 70 -24 38 0 -58 46 -118 55 -126 58 -94 33z"/>
<path d="M1095 752 c-7 -7 97 -43 104 -36 7 6 -4 13 -25 17 -10 1 -23 5 -29 8 -22 13 -43 17 -50 11z"/>
<path d="M1040 730 c25 -19 94 -41 127 -39 10 0 -10 9 -45 19 -35 9 -69 23 -75 29 -6 6 -16 11 -21 11 -6 0 0 -9 14 -20z"/>
<path d="M1245 710 c11 -5 27 -9 35 -9 13 -1 13 0 0 9 -8 5 -24 9 -35 9 -20 0 -20 0 0 -9z"/>
<path d="M1170 429 c-95 -39 -114 -144 -39 -215 28 -27 36 -29 105 -28 92 0 110 14 119 94 7 61 -12 105 -59 135 -32 21 -93 28 -126 14z m120 -55 c29 -25 31 -30 28 -88 l-4 -61 -70 -3 c-63 -2 -73 0 -97 22 -60 56 -14 156 71 156 29 0 49 -7 72 -26z"/>
<path d="M1171 341 c-23 -23 -18 -55 12 -76 23 -16 52 -20 43 -7 -2 4 -1 14 4 22 8 12 13 13 30 3 17 -12 20 -10 26 12 14 56 -72 89 -115 46z"/>
<path d="M390 410 c-11 -11 -20 -23 -21 -27 0 -5 -1 -41 -1 -81 -1 -56 3 -77 17 -92 23 -26 50 -25 75 0 l21 21 26 -21 c32 -25 55 -25 78 0 14 15 17 35 16 101 -1 46 -6 88 -12 95 -22 27 -50 27 -78 0 l-27 -26 -24 25 c-28 30 -44 31 -70 5z m50 -44 c0 -32 2 -34 38 -39 48 -6 52 -3 52 39 0 27 4 34 20 34 19 0 20 -7 20 -90 0 -83 -1 -90 -20 -90 -16 0 -20 7 -20 35 0 35 0 35 -45 35 -45 0 -45 0 -45 -35 0 -28 -4 -35 -20 -35 -19 0 -20 7 -20 90 0 83 1 90 20 90 16 0 20 -7 20 -34z"/>
<path d="M733 418 c-28 -44 -83 -166 -83 -184 0 -34 15 -38 125 -40 104 -1 125 5 125 38 0 26 -59 144 -87 174 -24 26 -67 32 -80 12z m95 -103 c24 -46 42 -88 41 -92 -5 -12 -33 -3 -42 13 -9 15 -49 11 -108 -11 -20 -8 -39 -12 -42 -9 -3 3 13 39 35 80 22 41 37 81 34 89 -4 11 1 15 17 15 18 0 31 -17 65 -85z"/>
<path d="M756 312 c-23 -45 -21 -53 14 -41 34 12 35 15 16 48 l-14 25 -16 -32z"/>
<path d="M1425 410 c-13 -14 -18 -38 -19 -90 -1 -65 1 -71 30 -101 55 -55 141 -49 187 12 25 35 26 152 1 181 -36 39 -76 12 -91 -62 l-10 -45 -8 48 c-11 69 -54 97 -90 57z m55 -80 c0 -67 1 -70 27 -76 44 -12 58 6 61 80 3 58 5 66 22 66 18 0 20 -7 20 -61 0 -59 -11 -96 -34 -111 -6 -4 -30 -8 -53 -8 -65 0 -83 23 -83 110 0 63 2 70 20 70 18 0 20 -7 20 -70z"/>
<path d="M1707 412 c-23 -25 -21 -39 13 -97 16 -27 30 -59 30 -71 0 -42 63 -71 88 -41 5 6 15 30 21 52 6 22 20 54 31 70 25 38 25 67 0 90 -19 18 -22 18 -56 2 -32 -16 -37 -16 -57 -2 -29 20 -50 19 -70 -3z m69 -47 c10 -19 22 -35 25 -35 4 0 16 16 28 35 13 22 28 35 41 35 27 0 26 -4 -15 -60 -25 -34 -35 -58 -35 -84 0 -30 -4 -36 -20 -36 -18 0 -20 4 -15 33 6 29 1 41 -34 85 -23 28 -41 54 -41 57 0 3 11 5 23 5 17 0 29 -10 43 -35z"/>
<path d="M1982 407 c-19 -20 -22 -35 -22 -99 0 -97 15 -119 88 -126 67 -6 98 3 118 33 15 23 15 27 0 50 -19 29 -20 48 -4 93 12 31 11 35 -11 53 -17 14 -39 19 -85 19 -52 0 -66 -4 -84 -23z m158 -27 c0 -18 -7 -20 -55 -20 -48 0 -55 -2 -55 -20 0 -18 5 -19 45 -13 41 5 45 4 45 -15 0 -17 -7 -21 -42 -24 -29 -2 -43 -8 -43 -17 0 -12 13 -14 58 -12 52 2 57 1 57 -18 0 -19 -6 -21 -75 -21 l-75 0 0 90 0 90 70 0 c63 0 70 -2 70 -20z"/>
<path d="M2237 412 c-20 -22 -24 -147 -5 -187 15 -32 53 -43 77 -21 22 20 35 20 50 2 21 -25 50 -26 78 -2 24 21 26 28 24 97 -2 90 -6 106 -33 120 -16 9 -26 7 -49 -10 l-30 -22 -28 21 c-36 25 -63 26 -84 2z m98 -73 l50 -61 3 61 c3 53 6 61 22 61 18 0 20 -7 20 -90 0 -87 -1 -90 -22 -90 -16 0 -35 17 -63 55 -22 30 -43 54 -47 55 -4 0 -4 -25 -1 -55 5 -51 4 -55 -16 -55 -19 0 -21 5 -21 68 0 37 -3 77 -6 90 -12 43 29 24 81 -39z"/>
</g>
</svg>