<svg xmlns="http://www.w3.org/2000/svg" version="1.0" width="238.000000pt" height="291.000000pt" viewBox="0 0 238.000000 291.000000" preserveAspectRatio="xMidYMid meet">
<metadata>
Created by potrace 1.10, written by Peter Selinger 2001-2011
</metadata>
<g transform="translate(0.000000,291.000000) scale(0.100000,-0.100000)" fill="#000000" stroke="none">
<path d="M1030 2819 c-19 -4 -51 -9 -70 -12 -73 -11 -188 -50 -276 -93 -171 -85 -321 -218 -435 -385 -36 -53 -58 -98 -134 -264 -15 -32 -10 -49 6 -25 9 12 9 11 4 -5 -26 -78 -46 -185 -50 -270 -3 -65 -2 -91 4 -75 l9 25 1 -29 c2 -55 10 -21 21 89 30 299 142 533 340 710 143 129 282 205 455 252 87 23 119 27 245 27 122 -1 161 -5 245 -26 253 -64 455 -196 592 -387 154 -214 221 -429 210 -676 -7 -141 -11 -172 -43 -285 -27 -93 -95 -241 -125 -271 -10 -10 -16 -19 -13 -19 21 0 -87 -117 -165 -179 -35 -28 -59 -51 -53 -51 14 0 84 55 148 116 30 28 54 48 54 45 0 -3 -20 -31 -45 -61 -54 -66 -149 -148 -227 -197 -32 -20 -58 -39 -58 -43 0 -3 -22 -17 -50 -30 -27 -13 -48 -25 -46 -28 9 -9 166 81 248 143 211 159 337 369 415 690 2 11 8 76 11 143 6 98 3 142 -10 210 -10 48 -15 92 -13 99 2 6 1 13 -3 15 -4 2 -20 43 -36 92 -28 84 -130 281 -161 313 -8 8 -15 19 -15 26 0 6 18 -13 40 -43 47 -62 123 -207 140 -267 7 -23 16 -40 21 -38 4 3 5 -4 2 -15 -3 -12 0 -20 7 -20 7 0 9 -8 5 -20 -4 -12 -2 -20 5 -20 6 0 8 -10 4 -25 -5 -19 -2 -25 11 -25 13 0 16 -9 14 -42 -1 -24 2 -51 6 -61 4 -10 5 -82 2 -160 -6 -159 -42 -329 -91 -426 -15 -29 -25 -60 -22 -68 4 -8 2 -11 -5 -7 -7 4 -9 0 -5 -14 4 -11 2 -23 -3 -27 -7 -3 -8 0 -5 9 12 32 -5 15 -35 -34 -35 -57 -38 -68 -14 -49 12 9 10 3 -5 -18 -13 -18 -26 -32 -30 -30 -9 2 -155 -150 -150 -157 2 -2 -1 -8 -6 -13 -5 -5 -6 -3 -2 5 5 8 -27 -13 -70 -45 -155 -114 -355 -196 -484 -196 -47 0 -58 -3 -40 -8 15 -5 -7 -7 -55 -4 -52 3 -71 1 -55 -4 14 -5 43 -10 65 -11 22 -1 31 -5 21 -7 -27 -7 -155 8 -134 16 10 3 -25 6 -77 6 -107 0 -98 -9 19 -20 44 -4 87 -12 96 -18 25 -15 229 17 339 53 339 111 611 383 721 722 12 37 23 77 24 90 2 12 6 30 9 38 3 8 6 22 6 30 1 8 6 62 11 120 20 216 -32 475 -130 640 -88 150 -238 314 -359 394 -150 99 -334 167 -505 186 -98 12 -210 11 -266 -1z m449 -45 c29 -8 51 -17 49 -19 -3 -4 -134 30 -153 40 -16 8 45 -4 104 -21z m421 -253 c30 -30 44 -46 30 -36 -13 11 -38 34 -55 50 -16 17 -47 42 -67 55 -21 14 -38 29 -38 34 0 13 69 -41 130 -103z m101 -1590 c-28 -32 -58 -64 -68 -72 -10 -8 11 19 46 59 35 39 66 72 68 72 3 0 -18 -26 -46 -59z m-146 -137 c-38 -34 -92 -70 -70 -46 15 16 99 81 105 81 3 0 -13 -16 -35 -35z"/>
<path d="M1521 2457 c-6 -6 -11 -16 -11 -21 0 -6 -6 -23 -14 -37 -7 -14 -16 -43 -20 -64 -4 -20 -11 -45 -16 -54 -9 -17 -31 -113 -50 -221 -6 -36 -14 -76 -17 -90 -4 -14 -8 -32 -10 -40 -4 -19 -32 -201 -40 -260 -6 -46 -20 -65 -38 -51 -5 5 -26 11 -45 14 l-35 6 40 -20 c34 -17 36 -19 10 -13 -70 16 -104 21 -100 14 5 -8 -44 -20 -79 -21 -18 0 -18 0 0 -14 18 -13 17 -14 -5 -8 -16 4 -22 2 -18 -5 4 -5 1 -13 -5 -15 -27 -11 20 -6 126 13 145 27 139 27 132 -17 -3 -21 -8 -58 -11 -83 -3 -25 -8 -56 -10 -70 -10 -55 -15 -93 -35 -246 -24 -187 -27 -199 -44 -185 -18 15 -26 3 -26 -34 0 -30 3 -33 39 -39 78 -12 76 -17 121 344 17 140 36 279 42 308 10 58 0 53 122 58 45 2 71 17 60 36 -7 10 -74 28 -104 27 -23 -1 -23 -2 5 -9 l30 -8 -36 -1 c-19 0 -40 -6 -46 -12 -17 -17 -23 3 -13 47 5 21 11 57 14 79 4 23 9 52 11 65 3 14 8 45 11 70 3 25 14 88 25 140 11 52 22 106 25 120 3 14 19 72 35 130 27 93 40 119 60 120 11 0 -3 50 -15 51 -6 1 -21 3 -33 4 -12 1 -27 -3 -32 -8z m1 -74 c-6 -10 -26 -83 -45 -163 -42 -174 -52 -221 -63 -297 -13 -99 -50 -303 -56 -308 -9 -10 7 106 46 330 40 228 106 478 122 462 3 -3 1 -14 -4 -24z m-183 -964 c-13 -94 -25 -166 -27 -160 -2 7 3 69 12 139 24 183 27 204 33 198 3 -3 -5 -83 -18 -177z"/>
<path d="M1101 2177 c-31 -82 -92 -360 -113 -519 -6 -49 -17 -91 -22 -93 -6 -2 -20 -6 -31 -11 -11 -4 -23 -6 -27 -6 -5 1 -8 -3 -8 -8 0 -6 -6 -10 -12 -9 -29 3 -49 -2 -43 -11 4 -6 -1 -7 -11 -3 -10 4 -20 0 -26 -11 -5 -9 -14 -14 -19 -10 -16 9 -39 -16 -39 -42 0 -13 2 -24 4 -24 10 0 86 47 82 51 -2 2 5 5 17 5 12 1 44 9 70 18 l49 16 -7 -50 c-11 -77 -8 -272 4 -302 20 -51 34 -33 29 37 -2 35 0 59 4 52 4 -7 8 7 9 33 1 37 2 40 9 20 5 -17 8 -4 8 45 2 81 21 199 37 225 3 6 2 10 -3 10 -5 0 -3 32 4 73 18 100 23 127 29 162 5 31 11 60 21 98 3 12 7 33 10 46 3 14 7 28 10 33 3 4 7 16 9 26 2 10 11 49 20 86 14 57 15 70 4 77 -27 17 -59 10 -68 -14z m-17 -194 c-3 -21 -11 -65 -19 -98 -17 -76 -31 -149 -46 -247 -6 -43 -16 -78 -20 -78 -9 0 -2 77 11 125 5 17 12 53 16 80 3 28 14 84 24 125 10 41 21 87 24 103 9 40 16 33 10 -10z m-95 -569 c-5 -60 -12 -113 -15 -119 -6 -14 5 184 13 213 12 47 13 12 2 -94z"/>
<path d="M161 1207 c-3 -32 126 -213 214 -302 92 -94 164 -155 183 -155 6 0 12 -4 12 -9 0 -14 225 -121 295 -140 79 -21 68 -10 -17 19 -293 99 -470 250 -675 576 -6 10 -12 15 -12 11z"/>
<path d="M611 758 c24 -18 47 -31 52 -30 4 1 7 -3 7 -9 0 -5 5 -7 10 -4 6 3 10 1 10 -5 0 -6 5 -8 10 -5 6 3 10 1 10 -5 0 -6 5 -8 10 -5 6 3 10 1 10 -5 0 -6 4 -9 9 -5 5 3 15 0 23 -7 13 -12 20 -15 58 -23 8 -2 29 -9 45 -16 39 -15 65 -18 65 -6 0 5 -9 7 -20 4 -11 -3 -20 -2 -20 2 0 4 -26 15 -57 25 -61 19 -152 63 -215 102 -54 35 -58 29 -7 -8z"/>
<path d="M465 251 c3 -11 -10 -47 -36 -95 -23 -42 -39 -80 -36 -83 4 -3 22 2 41 11 44 21 115 21 122 1 4 -8 15 -15 26 -15 11 0 18 3 16 8 -2 4 -25 49 -51 100 -36 71 -52 92 -68 92 -15 0 -19 -5 -14 -19z m56 -112 c-7 -8 -71 -20 -71 -14 0 2 10 20 21 40 l22 36 17 -28 c10 -15 15 -31 11 -34z"/>
<path d="M938 262 c-57 -7 -100 -101 -65 -144 34 -42 101 -61 137 -38 9 5 19 5 27 -2 20 -16 26 -4 30 65 3 50 1 68 -14 86 -19 24 -71 38 -115 33z m60 -43 c33 -11 47 -37 37 -69 -5 -17 -9 -18 -26 -7 -16 10 -21 9 -29 -3 -6 -9 -6 -16 0 -18 20 -7 0 -19 -24 -15 -58 11 -75 85 -26 110 31 16 30 15 68 2z"/>
<path d="M100 164 c0 -86 2 -95 18 -92 13 3 16 12 15 41 l-2 37 55 0 55 0 -3 -37 c-2 -29 1 -38 15 -41 15 -3 17 6 17 92 0 91 -1 96 -21 96 -19 0 -20 -4 -15 -35 5 -25 3 -35 -6 -36 -7 -1 -32 -2 -56 -3 l-43 -1 6 38 c6 33 4 37 -14 37 -20 0 -21 -5 -21 -96z"/>
<path d="M1200 190 c0 -62 3 -74 25 -95 30 -31 92 -34 126 -6 20 16 24 30 27 95 4 72 3 76 -17 76 -19 0 -21 -6 -21 -62 0 -80 -7 -90 -56 -86 l-39 3 -3 73 c-3 64 -5 72 -22 72 -18 0 -20 -7 -20 -70z"/>
<path d="M1529 203 c31 -42 41 -66 41 -95 0 -31 4 -38 19 -38 17 0 19 5 14 35 -5 30 1 44 36 95 42 60 42 60 17 60 -18 0 -30 -9 -41 -29 -22 -44 -31 -45 -55 -6 -15 25 -29 35 -46 35 -25 0 -25 -1 15 -57z"/>
<path d="M1794 168 l2 -93 77 -3 c72 -3 77 -1 77 18 0 18 -6 20 -61 20 -52 0 -60 2 -57 18 2 12 15 18 46 20 35 3 42 7 42 24 0 19 -4 20 -45 15 -40 -6 -45 -5 -45 13 0 18 7 20 55 20 48 0 55 2 55 20 0 18 -7 20 -74 20 l-73 0 1 -92z"/>
<path d="M2064 244 c3 -9 6 -51 6 -95 0 -72 2 -79 20 -79 18 0 20 7 20 63 l1 62 20 -25 c51 -62 91 -100 104 -100 12 0 15 18 15 95 0 88 -2 95 -20 95 -16 0 -19 -8 -22 -62 l-3 -63 -50 62 c-35 43 -57 62 -74 62 -17 1 -22 -3 -17 -15z"/>
</g>
</svg>